<svg data-v-423bf9ae="" xmlns="http://www.w3.org/2000/svg" viewBox="0 0 376 90" class="iconLeft"><!----><!----><!----><g data-v-423bf9ae="" id="ad5f1b77-4959-43b3-b561-aa3dea1ef7e6" fill="white" transform="matrix(5.836575485636349,0,0,5.836575485636349,105.5058366299559,-6.828793087197603)"><path d="M0.77 4.02L0.77 3.74L5.01 3.74L5.01 3.74Q6.08 3.74 6.97 4.06L6.97 4.06L6.97 4.06Q7.86 4.39 8.51 5.01L8.51 5.01L8.51 5.01Q9.17 5.63 9.53 6.60L9.53 6.60L9.53 6.60Q9.90 7.57 9.90 8.80L9.90 8.80L9.90 8.80Q9.90 10.27 9.28 11.42L9.28 11.42L9.28 11.42Q8.65 12.56 7.54 13.19L7.54 13.19L7.54 13.19Q6.43 13.82 5.00 13.82L5.00 13.82L0.77 13.82L0.77 13.54L2.03 13.05L2.03 4.51L0.77 4.02ZM4.92 4.47L4.92 4.47L3.36 4.47L3.36 13.10L4.96 13.10L4.96 13.10Q5.65 13.10 6.27 12.83L6.27 12.83L6.27 12.83Q6.90 12.56 7.39 12.06L7.39 12.06L7.39 12.06Q7.88 11.55 8.17 10.75L8.17 10.75L8.17 10.75Q8.46 9.94 8.46 8.93L8.46 8.93L8.46 8.93Q8.46 6.78 7.53 5.63L7.53 5.63L7.53 5.63Q6.61 4.47 4.92 4.47ZM14.57 6.65L14.57 6.65L14.57 6.65Q15.35 6.65 15.98 6.92L15.98 6.92L15.98 6.92Q16.60 7.18 17.03 7.67L17.03 7.67L17.03 7.67Q17.46 8.15 17.69 8.83L17.69 8.83L17.69 8.83Q17.92 9.50 17.92 10.32L17.92 10.32L17.92 10.32Q17.92 11.14 17.69 11.81L17.69 11.81L17.69 11.81Q17.47 12.49 17.04 12.97L17.04 12.97L17.04 12.97Q16.60 13.46 15.98 13.73L15.98 13.73L15.98 13.73Q15.36 13.99 14.57 13.99L14.57 13.99L14.57 13.99Q13.78 13.99 13.16 13.73L13.16 13.73L13.16 13.73Q12.54 13.46 12.11 12.97L12.11 12.97L12.11 12.97Q11.68 12.49 11.45 11.82L11.45 11.82L11.45 11.82Q11.22 11.14 11.22 10.32L11.22 10.32L11.22 10.32Q11.22 9.50 11.45 8.83L11.45 8.83L11.45 8.83Q11.68 8.15 12.11 7.67L12.11 7.67L12.11 7.67Q12.54 7.18 13.17 6.92L13.17 6.92L13.17 6.92Q13.79 6.65 14.57 6.65ZM13.08 8.10L13.08 8.10L13.08 8.10Q12.56 8.96 12.56 10.32L12.56 10.32L12.56 10.32Q12.56 11.00 12.69 11.56L12.69 11.56L12.69 11.56Q12.82 12.13 13.08 12.53L13.08 12.53L13.08 12.53Q13.34 12.94 13.71 13.17L13.71 13.17L13.71 13.17Q14.09 13.39 14.57 13.39L14.57 13.39L14.57 13.39Q15.06 13.39 15.44 13.17L15.44 13.17L15.44 13.17Q15.83 12.94 16.09 12.53L16.09 12.53L16.09 12.53Q16.35 12.13 16.49 11.56L16.49 11.56L16.49 11.56Q16.63 11.00 16.63 10.32L16.63 10.32L16.63 10.32Q16.63 9.65 16.49 9.09L16.49 9.09L16.49 9.09Q16.35 8.52 16.09 8.12L16.09 8.12L16.09 8.12Q15.83 7.71 15.44 7.48L15.44 7.48L15.44 7.48Q15.06 7.25 14.57 7.25L14.57 7.25L14.57 7.25Q13.60 7.25 13.08 8.10ZM21.55 13.05L22.74 13.54L22.74 13.82L19.04 13.82L19.04 13.54L20.30 13.05L20.30 7.92L19.04 7.42L19.04 7.14L21.42 6.65L21.55 6.79L21.55 7.62L21.55 7.62Q22.04 7.17 22.69 6.91L22.69 6.91L22.69 6.91Q23.34 6.65 23.97 6.65L23.97 6.65L23.97 6.65Q24.88 6.65 25.49 7.21L25.49 7.21L25.49 7.21Q26.09 7.77 26.09 8.88L26.09 8.88L26.09 13.05L27.35 13.54L27.35 13.82L23.64 13.82L23.64 13.54L24.83 13.05L24.83 9.30L24.83 9.30Q24.83 8.31 24.48 7.93L24.48 7.93L24.48 7.93Q24.13 7.55 23.28 7.55L23.28 7.55L23.28 7.55Q22.26 7.55 21.55 8.16L21.55 8.16L21.55 13.05ZM34.23 10.17L34.03 10.36L29.61 10.36L29.61 10.36Q29.61 11.13 29.83 11.70L29.83 11.70L29.83 11.70Q30.04 12.26 30.40 12.58L30.40 12.58L30.40 12.58Q30.76 12.91 31.20 13.06L31.20 13.06L31.20 13.06Q31.63 13.21 32.14 13.21L32.14 13.21L32.14 13.21Q32.85 13.21 33.67 12.73L33.67 12.73L33.88 13.14L33.88 13.14Q33.30 13.64 32.73 13.82L32.73 13.82L32.73 13.82Q32.16 13.99 31.42 13.99L31.42 13.99L31.42 13.99Q30.79 13.99 30.20 13.72L30.20 13.72L30.20 13.72Q29.61 13.45 29.17 12.98L29.17 12.98L29.17 12.98Q28.72 12.50 28.46 11.81L28.46 11.81L28.46 11.81Q28.19 11.12 28.19 10.32L28.19 10.32L28.19 10.32Q28.19 9.56 28.39 8.94L28.39 8.94L28.39 8.94Q28.58 8.31 28.90 7.90L28.90 7.90L28.90 7.90Q29.22 7.48 29.65 7.19L29.65 7.19L29.65 7.19Q30.08 6.90 30.53 6.78L30.53 6.78L30.53 6.78Q30.97 6.65 31.44 6.65L31.44 6.65L31.44 6.65Q32.02 6.65 32.52 6.87L32.52 6.87L32.52 6.87Q33.01 7.08 33.40 7.50L33.40 7.50L33.40 7.50Q33.78 7.92 34.01 8.61L34.01 8.61L34.01 8.61Q34.23 9.29 34.23 10.17L34.23 10.17ZM31.47 7.31L31.47 7.31L31.47 7.31Q30.68 7.31 30.21 7.94L30.21 7.94L30.21 7.94Q29.74 8.56 29.63 9.64L29.63 9.64L32.89 9.64L32.89 9.64Q32.89 8.54 32.53 7.93L32.53 7.93L32.53 7.93Q32.16 7.31 31.47 7.31ZM39.76 7.36L37.52 7.77L37.52 11.58L37.52 11.58Q37.52 12.04 37.59 12.36L37.59 12.36L37.59 12.36Q37.66 12.67 37.80 12.83L37.80 12.83L37.80 12.83Q37.94 12.98 38.10 13.04L38.10 13.04L38.10 13.04Q38.25 13.10 38.47 13.10L38.47 13.10L38.47 13.10Q38.88 13.10 39.16 13.03L39.16 13.03L39.16 13.03Q39.44 12.95 39.76 12.76L39.76 12.76L39.97 13.19L39.97 13.19Q39.01 13.99 37.86 13.99L37.86 13.99L37.86 13.99Q37.19 13.99 36.72 13.46L36.72 13.46L36.72 13.46Q36.26 12.93 36.26 11.98L36.26 11.98L36.26 7.77L34.99 7.42L34.99 7.14L36.31 6.86L36.82 4.98L37.52 4.98L37.52 6.86L39.52 6.86L39.76 6.95L39.76 7.36ZM41.33 11.51L41.68 11.51L42.41 13.06L42.41 13.06Q42.50 13.12 42.63 13.16L42.63 13.16L42.63 13.16Q42.76 13.21 42.91 13.24L42.91 13.24L42.91 13.24Q43.06 13.28 43.22 13.30L43.22 13.30L43.22 13.30Q43.37 13.32 43.52 13.32L43.52 13.32L43.52 13.32Q43.87 13.32 44.16 13.24L44.16 13.24L44.16 13.24Q44.44 13.17 44.65 13.04L44.65 13.04L44.65 13.04Q44.85 12.91 44.96 12.71L44.96 12.71L44.96 12.71Q45.07 12.52 45.07 12.27L45.07 12.27L45.07 12.27Q45.07 11.95 44.81 11.66L44.81 11.66L44.81 11.66Q44.54 11.37 44.06 11.09L44.06 11.09L43.33 10.68L43.33 10.68Q42.94 10.48 42.60 10.26L42.60 10.26L42.60 10.26Q42.27 10.04 42.01 9.78L42.01 9.78L42.01 9.78Q41.76 9.52 41.61 9.21L41.61 9.21L41.61 9.21Q41.47 8.89 41.47 8.50L41.47 8.50L41.47 8.50Q41.47 8.03 41.65 7.68L41.65 7.68L41.65 7.68Q41.84 7.33 42.18 7.11L42.18 7.11L42.18 7.11Q42.52 6.88 43.00 6.76L43.00 6.76L43.00 6.76Q43.48 6.65 44.07 6.65L44.07 6.65L44.07 6.65Q44.97 6.65 45.88 6.95L45.88 6.95L45.85 8.92L45.57 8.92L44.84 7.31L44.84 7.31Q44.58 7.28 44.40 7.26L44.40 7.26L44.40 7.26Q44.21 7.24 44.08 7.24L44.08 7.24L44.08 7.24Q43.72 7.24 43.45 7.32L43.45 7.32L43.45 7.32Q43.18 7.41 43.00 7.55L43.00 7.55L43.00 7.55Q42.83 7.69 42.74 7.87L42.74 7.87L42.74 7.87Q42.66 8.05 42.66 8.24L42.66 8.24L42.66 8.24Q42.66 8.46 42.74 8.64L42.74 8.64L42.74 8.64Q42.83 8.83 42.99 8.99L42.99 8.99L42.99 8.99Q43.16 9.15 43.42 9.31L43.42 9.31L43.42 9.31Q43.67 9.47 44.00 9.65L44.00 9.65L44.00 9.65Q44.48 9.91 44.79 10.08L44.79 10.08L44.79 10.08Q45.10 10.24 45.24 10.34L45.24 10.34L45.24 10.34Q46.31 11.05 46.31 11.99L46.31 11.99L46.31 11.99Q46.31 12.50 46.07 12.88L46.07 12.88L46.07 12.88Q45.83 13.25 45.44 13.51L45.44 13.51L45.44 13.51Q45.04 13.77 44.55 13.89L44.55 13.89L44.55 13.89Q44.06 14.02 43.56 14.02L43.56 14.02L43.56 14.02Q43.30 14.02 43.00 13.99L43.00 13.99L43.00 13.99Q42.70 13.95 42.40 13.89L42.40 13.89L42.40 13.89Q42.10 13.83 41.82 13.74L41.82 13.74L41.82 13.74Q41.54 13.66 41.33 13.56L41.33 13.56L41.33 11.51Z"></path></g><!----><g data-v-423bf9ae="" id="4fa72b53-6f9a-4f3a-9bcc-a7ddf206bab8" transform="matrix(2.8125,0,0,2.8125,0,0)" stroke="none" fill="white"><path d="M0 32h32V0H0v32zm19.377-19.492l6.936-6.936v20.855h-6.936V12.508zM5.688 5.572l6.936 6.936v13.919H5.688V5.572z"></path></g><!----></svg>