<svg width="92" height="92" viewBox="0 0 92 92" fill="none" xmlns="http://www.w3.org/2000/svg">
<rect width="92" height="92" rx="24" fill="white"/>
<path d="M54.3522 34.389C55.0842 35.121 56.2702 35.123 57.0022 34.389L59.6102 31.781C60.3412 31.049 60.3392 29.863 59.6102 29.13L53.0272 22.549C52.2972 21.817 51.1112 21.817 50.3792 22.549L47.7702 25.157C47.0402 25.889 47.0402 27.075 47.7702 27.805L54.3522 34.389Z" fill="url(#paint0_linear_22728_12647)"/>
<path d="M38.766 50.2652C39.497 50.9942 40.683 50.9942 41.414 50.2652L44.023 47.6553C44.755 46.9253 44.755 45.7383 44.023 45.0063L37.44 38.4233C36.709 37.6933 35.523 37.6913 34.791 38.4233L32.183 41.0312C31.451 41.7632 31.453 42.9492 32.183 43.6812L38.766 50.2652Z" fill="url(#paint1_linear_22728_12647)"/>
<path d="M68.6481 50.8912L66.0011 48.2412C65.2671 47.5112 64.0841 47.5112 63.3531 48.2412L62.1921 49.4012L50.9871 38.1942L53.4141 35.7662L46.6811 29.0352L44.2531 31.4632L41.1611 34.5532L38.7871 36.9272L45.5191 43.6602L47.8961 41.2872L59.0991 52.4922L58.0511 53.5412C57.3191 54.2702 57.3171 55.4572 58.0511 56.1892L60.6981 58.8372C61.4321 59.5712 62.6171 59.5712 63.3481 58.8372L68.6471 53.5402C69.3801 52.8072 69.3801 51.6232 68.6481 50.8912Z" fill="url(#paint2_linear_22728_12647)"/>
<path d="M49.077 58.9425C49.077 57.7435 48.105 56.7695 46.904 56.7695H29.936C28.736 56.7695 27.763 57.7435 27.763 58.9425V62.4695H23V69.8585H53.558V62.4695H49.077V58.9425Z" fill="url(#paint3_linear_22728_12647)"/>
<defs>
<linearGradient id="paint0_linear_22728_12647" x1="53.6902" y1="22" x2="53.6902" y2="34.9388" gradientUnits="userSpaceOnUse">
<stop stop-color="#EF8080"/>
<stop offset="1" stop-color="#F0145A"/>
</linearGradient>
<linearGradient id="paint1_linear_22728_12647" x1="38.1034" y1="37.875" x2="38.1034" y2="50.812" gradientUnits="userSpaceOnUse">
<stop stop-color="#EF8080"/>
<stop offset="1" stop-color="#F0145A"/>
</linearGradient>
<linearGradient id="paint2_linear_22728_12647" x1="53.992" y1="29.0352" x2="53.992" y2="59.3877" gradientUnits="userSpaceOnUse">
<stop stop-color="#EF8080"/>
<stop offset="1" stop-color="#F0145A"/>
</linearGradient>
<linearGradient id="paint3_linear_22728_12647" x1="38.279" y1="56.7695" x2="38.279" y2="69.8585" gradientUnits="userSpaceOnUse">
<stop stop-color="#EF8080"/>
<stop offset="1" stop-color="#F0145A"/>
</linearGradient>
</defs>
</svg>
